<?xml version="1.0" encoding="UTF-8"?> <svg xmlns="http://www.w3.org/2000/svg" viewBox="0 0 261.0556640625 175.65966796875" fill="none"><path d="M34.68343084348834 175.30999514241924C34.32544733477871 174.38668247794558 32.238001278409094 157.66513039212023 31.960957516260468 157.51923899708436C31.770349409389954 157.364354296875 16.821028033604964 159.70411252616628 16.344232970992824 159.31715058967555C15.876406232150869 159.01662430846292 14.535479449386964 151.99635036445875 14.708250834330144 151.97836375411185L31.525281843413577 149.96836004784691L29.765341983776917 133.03796343077153C32.56201007868571 132.22331987047698 35.085131807902215 132.1356351450359 37.80760513513008 132.28927077508226L39.48685506223834 148.4422461227198L56.15794471347937 146.70928617860346C56.15794471347937 146.70928617860346 56.97183883167614 153.6970842983702 56.57563377597937 154.0875436313173C56.18867183948864 154.56418880550987 41.48062085638457 156.7043456227572 41.07567230954695 157.00836930042612C40.67072376270933 157.3123929780951 42.517099277624105 174.233796289997 42.371207882588216 174.51084005214565C42.138880832274225 174.7968771194677 34.95497869691986 176.2423011120664 34.68343084348834 175.30999514241924Z" fill="#FE6C00"></path><path d="M91.29328914193331 172.9180257803155C90.71546928453948 173.24003606833134 77.31219699368272 175.3317289632551 76.7041496383448 174.52183186957984C76.06212757457388 171.70717716432418 73.8620153895036 143.82118614776465 72.60719950377542 130.0689236533717C72.60719950377542 130.0689236533717 62.31586061696322 136.90133744486394 61.17495993009869 136.84537910156251C60.47498101076555 136.83064007363936 56.406759489944676 126.2522648633747 56.630093235085226 125.87979214077453C58.00531948452452 123.9904486122533 75.10134280521083 113.74407625130831 77.02516067023026 112.9329300874701C78.59798981945275 112.9441717189369 84.57953701592405 113.37010464451257 85.6372496299342 114.3079065228768C85.6372496299342 114.3079065228768 91.36598502541867 169.41788136961725 91.29328914193331 172.9180257803155Z" fill="#FE6C00"></path><path d="M127.84557876327004 138.12242843619168L127.89953859431071 138.64079255382777C130.63125504074463 138.88061402511963 137.59107398886064 141.99904259401166 138.52487884270334 150.98235520615282C139.78194305472488 163.07560271007776 130.39942761849582 170.2500119121935 118.99741554276316 171.43537949686004C108.45901057771381 172.53081402979217 101.00431003102572 168.8525522138532 98.21213858870365 166.3489159791791C97.92260412492526 165.24398851300836 102.0380404979067 156.9579068658418 104.18519210806669 155.77428797940343C106.26514374345844 157.30439892905204 110.39456970226526 159.2324636326256 115.83651858832984 158.66688466282895C121.45133878495065 158.08331908268542 123.71040708171351 154.61789882251796 123.36016780801435 151.24915659296502C122.94722521213367 147.27561459049792 119.57723391241777 145.09373882980714 113.78979221927332 145.69554083433016C112.40757117692135 145.8391839030727 107.57941536894438 146.42824539193333 106.19719432659241 146.57188846067586C105.02606614178379 145.38402273568335 103.91614239496113 135.5455966899671 104.95811672491776 134.6515122673071C106.7720164155951 134.46290267269737 111.10903783548893 134.18685816667914 113.44130164380233 133.9442887410287C116.2919295697518 133.64800929837023 120.3986224515924 131.99873705517345 119.9229765335302 127.42064509382477C119.49179751327003 123.27448159483403 115.90746577358703 121.55151421202153 111.8477379298744 121.97345011307567C107.8741959274073 122.38664252298894 104.72104320798447 124.80983863916717 103.25938130326706 126.70817547286184C101.95460261101975 126.75638958115282 95.68102281044409 120.1615489346591 94.3102932135915 118.73236285417913C97.0427591021232 114.78130411464564 102.39027828386662 109.94690295585377 112.58294062780352 108.88744164361545C123.9849527035362 107.70232387298147 132.9420348422548 113.23245711255234 134.01948276484 123.59799076704546C134.83662446546055 131.45838930266896 130.29350646867525 136.47090786670157 127.84557876327004 138.12242843619168Z" fill="#FE6C00"></path><path d="M184.29655533698417 163.59971255046352C180.3949597759046 164.7038905745365 174.8665752345619 165.27846284950658 170.6034987683164 164.5864779792165L169.56751997514203 153.78027237122458C166.8213143148176 154.24018000523324 148.78599023157147 156.28965432864834 144.4402253205368 156.47951299342105C143.68853489645636 154.28739485739385 142.0380135830966 147.64858694116327 141.95932216282895 145.21190086722487C144.00854667221142 138.8871091899671 158.8789767765027 109.75054912623357 162.89148976805475 103.83270450807416C166.2692253027811 103.56890088965312 175.22905539585827 103.24863929986545 178.4643969320051 104.13472967348235L182.158147217965 140.50965133167614C182.158147217965 140.50965133167614 188.21388918211724 139.96730506691088 189.78646851730713 139.9785466983777C190.23088768129486 140.89286605767794 190.9538494916268 151.20793727758675 190.9538494916268 151.20793727758675C190.9718361019737 151.38055877411034 183.02500191107208 152.2066937799043 182.93856625579397 152.21568708507778C182.85213060051586 152.2246803902512 184.27856872663727 163.4270910539399 184.29655533698417 163.59971255046352ZM167.08236997888008 121.47082427949313L166.6414482113487 121.42935515008224C165.16529709274073 124.02742108907745 157.11254175201856 139.79518319845246 155.8394894419109 143.50716990879187L168.52829359954396 142.10096671931072L167.08236997888008 121.47082427949313Z" fill="#FE6C00"></path><path d="M18.96603124308463 67.31763717759421C19.561113250130834 68.6808723534689 19.701233941013758 75.01365807976974 19.515672077601675 75.0978454087545C19.387517478880085 75.11108555248207 2.844682351973684 77.34891965647428 1.6005660012615879 77.21901635952452C0.559471016699686 76.55001438023325 -0.19732060992636064 69.89272022559061 0.04566825348478619 69.73783552538129C0.2886576165239982 69.58295082517195 18.669751800426138 66.95990348291717 18.96603124308463 67.31763717759421Z" fill="#6AC9F1"></path><path d="M25.510509380607058 76.41761294295755C24.937685803865133 70.90696519792913 28.517520890961425 66.71358684677782 31.88201628196023 64.80925447630084C28.652920096628293 63.65511364570874 25.08932292165072 60.52794158567584 24.609879830293064 55.91437603169857C23.71734425463517 47.32801791735198 30.096595390998804 42.64925090086722 38.49084651427931 41.776650485010464C47.33351382606908 40.85733484505831 54.423735699200066 44.26579750579396 55.316321237664475 52.85215562014055C55.775979057640555 57.27336436901914 53.56587431126645 60.9361377149372 50.764959377803535 62.652110304837024C54.327557296650724 63.9009306537829 58.51444048295455 67.41681334853469 59.10724918230413 73.1198178986618C60.01307486449611 81.83433061172997 53.12370347357207 87.21382598964564 44.08867935668361 88.15287693817285C34.02841845002243 89.19884829265102 26.496275553229665 85.90130306238785 25.510509380607058 76.41761294295755ZM40.39318037249552 59.45548994374253C44.04571134307715 59.07577261419708 45.61579253794109 57.35805132606908 45.32950565658643 54.602602546538584C45.042968961199165 51.84740358104067 43.278782263008374 49.82865638363487 39.62625129242674 50.20812389914773C35.71766093843451 50.61457133018092 34.27798266858553 52.96632063303679 34.53778926248505 55.465460215124104C34.81083600011215 58.09250458190042 36.67669700956938 59.841702438135464 40.39318037249552 59.45548994374253ZM36.1823150390625 74.40161369991029C36.535302267120215 77.79783547304875 38.62674534801137 79.84730979646382 42.79164489944677 79.41438207797549C47.08494886363636 78.96796440172699 48.838143744392944 76.5187876261588 48.52512676155054 73.5072794632177C48.185379677220396 70.23921228880084 46.12491353637112 67.862731396718 41.83160957218152 68.30889925893392C37.34619861692584 68.77505224375749 35.88253819994767 71.51801032165821 36.1823150390625 74.40161369991029Z" fill="#6AC9F1"></path><path d="M85.22955312873805 59.717295049902816L85.26952337395335 60.10175884606759C87.29601480636963 60.279626437275724 92.45892141802483 62.59290437911184 93.15165573041268 69.25694351263456C94.08421151409242 78.22776542314594 87.12414275194378 83.5500533875972 78.66593923631879 84.42914896830145C70.84825890026914 85.24179401633523 65.31837547473087 82.51332515232505 63.24691751644737 80.65620763400868C63.03232726244767 79.83631797902962 66.08530455479965 73.68964370701256 67.6778690125972 72.81179719647129C69.22097029194079 73.94670234655354 72.28418995962919 75.37713749719647 76.3211847263756 74.95744992243571C80.48608427781102 74.52452220394737 82.16208662249551 71.95393580853768 81.902280028596 69.45479622645037C81.59575821060108 66.50724045585376 79.09586918641598 64.88869533866627 74.80281503625898 65.33511301491478C73.77732843245366 65.44153379280054 70.19574464712919 65.87870834984301 69.17050785735645 65.98537894176135C68.30165465198864 65.10403503476377 67.47826760055322 57.805718072480566 68.25144203143691 57.142461815939C69.59694041099732 57.00256595768541 72.81429533679724 56.79771845095694 74.54425751252244 56.61785234748804C76.65893329844498 56.39826581283643 79.70541542594947 55.17467668118272 79.35242819789175 51.77845490804426C79.03266623616926 48.70274453872607 76.3738954872533 47.42469594796651 73.3621375102796 47.73771293080891C70.41458173968302 48.04423474880383 68.07532313845695 49.841896527362444 66.99113023699162 51.24984841507177C66.02335067471591 51.28582163576555 61.36956506149073 46.39371343544408 60.35257213479366 45.33350268110796C62.379563195275125 42.402434636662676 66.34636021886215 38.8163541987515 73.90748154343602 38.03043925220545C82.36568505906102 37.1510938574686 89.01023869804126 41.25353990075509 89.80939378831489 48.94281582405054C90.41544263139204 54.77397497289922 87.04545133167613 58.49220703405353 85.22955312873805 59.717295049902816Z" fill="#6AC9F1"></path><path d="M118.36038975964414 89.67999011943033C118.14480024951406 89.12415389690491 116.88848547959032 79.05964615168959 116.72160970581639 78.97196142624851C116.60694506485497 78.87878079209031 107.60914323882326 80.28698249383224 107.32235672940341 80.05415581545304C107.04056650063546 79.87329045585378 106.23366717535137 75.6476860944976 106.33758981291118 75.636944091096L116.45955478562351 74.42709473123506L115.40034328741777 64.23693052762411C117.08359023904755 63.746795395671356 118.60195992916418 63.69408463479367 120.24073998299194 63.78651582685407L121.25148755887412 73.50877834741328L131.28551799211274 72.46555494729365C131.28551799211274 72.46555494729365 131.7751534960003 76.67142400007477 131.53683090890402 76.90649900474732C131.3040042305248 77.19328551416716 122.45134435743122 78.48157648026317 122.20777567565042 78.66444035212321C121.96395717983702 78.84755403801586 123.07512999682267 89.0322223329097 122.98744527138157 89.19884829265102C122.84779922716059 89.37121997514204 118.52376813696172 90.24107243664025 118.36038975964414 89.67999011943033Z" fill="#D7DDD8"></path><path d="M152.4327754794034 88.24031184958135C152.0850343460302 88.4341675388756 144.01778979141747 89.6929804491253 143.65181223366477 89.20559327153111C143.26559973927183 87.51160431649971 141.94133555248206 70.72734890849283 141.18589791791268 62.45001075246711C141.18589791791268 62.45001075246711 134.99175897970247 66.56244935705742 134.30527001812948 66.528724462657C133.88383374514055 66.51998097151616 131.43515659763756 60.15272090871711 131.56955654717405 59.92863772147877C132.39719043716357 58.79148424510318 142.68703043978022 52.624325222413276 143.84516829489385 52.13618860272129C144.7917136643989 52.142933581601376 148.3917836881355 52.399242779044556 149.0285596572219 52.96382249271083C149.0285596572219 52.96382249271083 152.47649293510767 86.13363011270185 152.4327754794034 88.24031184958135Z" fill="#D7DDD8"></path><path d="M173.96000011027212 86.00247774558912C173.61225897689894 86.19633343488337 165.5450144222862 87.45539615916567 165.1790368645335 86.96775916753887C164.79282437014058 85.27377021250747 163.46856018335077 68.4897646185332 162.713372362814 60.21242646250748C162.713372362814 60.21242646250748 156.51923342460378 64.32461525306519 155.83249464899822 64.29089035866478C155.41105837600927 64.28214686752392 152.96238122850627 57.91513661875748 153.09678117804276 57.691053431519144C153.92466488206492 56.55389995514354 164.21450488468153 50.38674093245365 165.37239292576257 49.89835449872907C166.31893829526763 49.905099477609156 169.91925813303678 50.16165848908493 170.5560341021232 50.725988388718605C170.5560341021232 50.725988388718605 174.003967380009 83.89579600870964 173.96000011027212 86.00247774558912Z" fill="#D7DDD8"></path><path d="M205.60669157352723 92.98927660922548C205.42657565602573 92.5246225085975 204.37635746299344 84.11163533287231 204.23696123280504 84.03819000728919C204.1410326442883 83.96024802911933 196.61963175089713 85.13762156474282 196.3798102796053 84.94276661931819C196.14448546090014 84.79162912959778 195.46973775885917 81.25950852272727 195.55667304220245 81.25051521755384L204.01762451218602 80.23926801360646L203.13228358066686 71.7211091301585C204.5392362122458 71.31141411670157 205.80879112589713 71.26719703293212 207.17852146661934 71.34438956900418L208.02339252485797 79.4713396774073L216.4108986692584 78.59948870364833C216.4108986692584 78.59948870364833 216.82034386868273 82.11512158436753 216.62124208470397 82.31172522802035C216.4263871392793 82.5515466993122 209.02639586572965 83.62824517979965 208.82279742916418 83.78113136774822C208.61894917856608 83.93426736972937 209.5477577517569 92.44767978655801 209.47456224020635 92.58707601674642C209.35764927295156 92.73096889952153 205.74333984935706 93.45817754840759 205.60669157352723 92.98927660922548Z" fill="#2888CB"></path><path d="M220.9622605291193 92.18362635410438L228.87861740804428 68.60567832965761L217.50583357412532 69.91945032707835C217.01519881410738 69.00413171164773 216.29023849151466 63.72006529418361 216.50582800164474 63.25840896194678C219.25103440583882 62.62163299286035 235.16643660847788 61.05504919445275 235.2578685444079 61.089523530950956C235.43623576368122 61.11500456227572 236.55390374551436 66.79727454769737 236.55390374551436 66.79727454769737C236.55390374551436 66.79727454769737 229.00002702788578 93.0175055949088 228.95655938621414 93.02200224749552C228.86962410287083 93.03099555266897 222.47488449648625 93.21261035436603 220.9622605291193 92.18362635410438Z" fill="#2888CB"></path><path d="M252.8817489159689 77.53203334236693L252.73435863673745 77.37165273344048C251.69513226113935 78.35841816219347 250.24621087208433 79.21178289754039 247.98589350515851 79.44660808818033C244.03108755513608 79.85780198583284 239.13073549173896 77.51179840572668 238.41701680061306 70.64516009176884C237.68056503252092 63.56118356945275 242.28713579358555 59.69980806762111 248.5017594824686 59.05378897932865C253.67365939929726 58.51643899521532 259.93399905614535 61.687328510952455 260.883292380009 70.81403437780352C262.042429491253 81.9829699611244 253.97093809808612 89.27953822517944 250.52100630793961 90.73645366327752C249.78255602758674 90.81339638531699 245.45427809883375 88.05644872159091 244.92767011812202 86.79313915875449C248.94168199386965 84.83859416772579 252.52701298968302 80.8638030950957 252.8817489159689 77.53203334236693ZM253.24897554388457 69.23520969179874C252.991667090311 66.75780393054725 251.5602326835377 64.79826265886663 248.8210218161259 65.08305065602572C245.9961247355338 65.37658214432567 244.7607943443481 67.43779772727272 245.00486265419408 69.78480056350926C245.25317780259422 72.17502122738487 246.70060030745367 74.26496542408044 249.4817799323415 73.97568077433463C252.47954832348984 73.66416267568779 253.46631375224283 71.32115686397279 253.24897554388457 69.23520969179874Z" fill="#2888CB"></path><path d="M163.37213196676885 17.260650768166865C163.7755816294109 18.185137558593752 163.87076077582986 22.480290146624554 163.74485450340163 22.537322690266148C163.65791922005832 22.546340976842853 152.43802157408794 24.064061150474732 151.59414977197966 23.976051666791268C150.88817531586423 23.52231443938771 150.3748074788801 19.007025725833582 150.53968474039323 18.902053869336875C150.70456200190642 18.797057031436903 163.17103167052932 17.01795643550015 163.37213196676885 17.260650768166865Z" fill="#B73634"></path><path d="M177.51635267830446 24.18084921071322L177.62127457199463 24.3456515280166L186.68177972020786 23.18419114626944C187.20489030446322 23.569079626289625 187.65605444733106 30.023649693480863 187.26059883373208 30.020901739122312C186.4049857720918 30.241487529904308 169.2909758410586 32.10834779549192 169.01193356664925 31.961706958358253C168.7811054005308 31.853787296276916 167.53353412174792 27.458809020820876 167.61272517008075 26.528251749401914C172.63723480767794 19.504380483328347 178.26804310238487 14.086863409651617 177.8660923239384 10.21896776156923C177.6852269643391 8.480586852945574 176.61002736804727 7.010905917781848 174.1763390625 7.263892588591508C171.4383772652512 7.5485057159277815 170.28548550482208 9.557310314836274 169.82707675500896 10.219942036296352C168.94723173220694 9.784266363449463 165.47756463348537 6.41095253710003 165.49680031399524 5.750019551061603C165.5157861804725 5.089086565023177 168.14233091918362 0.7745958727291419 174.83509866645485 0.07889851610066538C180.57182811098238 -0.517412326171875 184.94782051996114 2.2784588619729367 185.54862326835377 8.058576007681669C186.08172641391297 13.186783450209331 182.48715229889353 17.909417810817885 177.51635267830446 24.18084921071322Z" fill="#B73634"></path></svg> 