<?xml version="1.0" encoding="UTF-8"?> <svg xmlns="http://www.w3.org/2000/svg" viewBox="0 0 218.84814453125 68.462890625" fill="none"><path fill-rule="evenodd" clip-rule="evenodd" d="M218.6218015872485 20.80331488956817C218.5978182289437 17.96888166057987 218.01872005654252 15.22491066119747 216.88800464313107 12.655843298785761C215.829738957932 10.21943388699745 214.36425583484947 8.030302892397529 212.5307780577777 6.166820934779895C210.70054802714307 4.300316074709261 208.57477307073168 2.8077017775444135 206.19567389222584 1.7342491303521423C203.64169605941422 0.5763525775285834 200.90959182585974 0.0004227516589188249 198.06006906727131 0.02152961092356503L180.74308506461367 0.1542049994470605C177.64923184329515 0.17531260319512076 174.71526767734196 1.2789300694685983 172.49905547398956 3.2630358280268976C171.3231214371076 4.32142642655046 170.40650746189624 5.566762306526916 169.74896372170645 6.941758217338666C169.42044167826057 6.426140996450485 169.05844286384755 5.913521695350403 168.6424814932488 5.44010019547972L168.6364856536726 5.494387526309218C168.5308089811421 5.3466400460857235 168.45536133314158 5.213957112797428 168.3379428081077 5.069232535026933L167.84028812328322 4.466151004320954C165.3677537780483 1.5563425770603685 162.00258881590682 -0.02973161967182595 158.38110171188285 0.00042217206109312574C155.32072526153146 0.021529036322272314 152.46195891692975 1.1613316692474227 150.30620476263735 3.2117713996503996C150.26073631251785 3.250969200879798 150.21251976925925 3.2781003749620967 150.16730114578874 3.3172981761914953C150.16730114578874 3.3172981761914953 145.225230375107 7.752895381338738 143.42497954235336 9.36005519707388C142.82489593143552 7.252342707385755 141.67919091908354 5.352660868326823 140.0388291416952 3.826894574838577C138.04271421611907 1.9754742478350635 135.54894460571848 0.9140732381909514 132.91052536554204 0.6306299152921215C132.59399500124857 0.5823833928356432 132.25922729157747 0.5522318145668343 131.8852367980121 0.537154776299185C131.7768120323425 0.537154776299185 131.6681374400239 0.5130315150709457 131.55971267435433 0.5130315150709457C131.55971267435433 0.5130315150709457 131.6351603223548 0.5311239609921251 131.64715200150718 0.5311239609921251C131.20096160637843 0.5281085533385952 130.72454218671965 0.5190623303780055 130.10622123042415 0.5281085533385952C126.78627489175318 0.5522318145668343 123.71365693560038 1.8337550846521387 121.43423859004888 4.1374790648856665C120.5083810288242 5.0812741795091325 119.80586849181292 6.166820934779895 119.23601390542504 7.312650860456354C118.50926818345997 5.874323894121004 117.4959712950824 4.580746488221051 116.19937098672945 3.5223558896974883C113.93794015990653 1.6618793466674247 111.12764018521244 0.6758610300950699 108.09124709316585 0.6849072530556596L87.69839738791826 0.8417034545062339C84.33922826535299 0.8628113080809432 81.26061446962399 1.5774504306350778 78.5497455012352 2.958472160220908C76.128425619047 4.194764315503265 74.03287968716556 5.762751312673909 72.31707026177672 7.635276994985642C71.88886738537653 8.096631867709224 71.48489769393015 8.576074189821007 71.10790928057666 9.06456023662689C70.45960912640018 8.256445975079819 69.77208618832941 7.478485790068047 69.00336958933094 6.763856660579873C67.06446496637771 4.975747402968036 64.8120278989191 3.5615536909268872 62.31825828851848 2.5755378726210223C59.770276295283075 1.568404207674488 57.077644672271866 1.067856530254486 54.32755291998877 1.085948976175665L38.129042824941145 1.206562784050371C35.382198819095144 1.2246527317050602 32.70455679502443 1.7674161162744808 30.174562320517623 2.8077017775444135C27.63557408664651 3.8570486513738764 25.39213077855219 5.334573418938624 23.489575933029663 7.204101181462257C23.218189244211974 7.463421243132848 22.97393372947658 7.752895381338738 22.72065947271199 8.030302892397529C21.372794735982538 5.964786123726901 19.03891418094722 4.59278813270325 16.391426233411813 4.59278813270325H7.56550041191763C3.3862253486528786 4.59278813270325 0 7.97903846402103 0 12.158313527285781V56.2879426347567C0 60.46429472622806 3.3862253486528786 63.853443046674336 7.56550041191763 63.853443046674336H16.391426233411813C18.80070447111783 63.853443046674336 20.941593939794252 62.71673179368668 22.325633575300106 60.96469750419163C22.71461366780599 61.42612732490992 23.109639565217876 61.881311479403 23.53479455650016 62.30651643601509C25.3621515806712 64.17297133075593 27.496920296446916 65.65968971900418 29.858031956224135 66.73619274958084C32.42999730776434 67.89413926773419 35.162101541318854 68.46998969369827 38.00837655347014 68.45175234832067L55.31361870362443 68.32534006392248C58.42246152388342 68.29511103939248 61.35018002361141 67.18837898428582 63.57263789318904 65.19825989828588C65.55975905940086 63.41924433069796 66.82912826301191 61.076370016298334 67.2905580837302 58.47117772044003C67.78796294190568 61.082365855874535 69.09680475606004 63.404254731757455 71.11390512015286 65.14404751545109C73.40856289129388 67.13416660145103 76.27632299525989 68.16844892834528 79.42139067962508 68.14121782360338L104.90995454469446 67.95434749014518C110.66621036449415 67.91212678646279 115.62651848055347 65.83157045352188 119.26299518351794 61.941769528463006C119.44087175761184 61.751651448567706 119.58876913382474 61.54679359638092 119.75765194855433 61.35367759669752C120.3275065349422 62.40619726896939 120.99679212763537 63.404254731757455 121.86843730602526 64.26365840434593C124.19007635525917 66.54007883010935 127.29292333594195 67.7854646754156 130.59488215588433 67.7582335706737L132.04212793358928 67.7522377310975C135.20518313668308 67.7252564530046 138.19635760525915 66.50685188579124 140.48202161703588 64.31787078718072C142.19783104242472 62.67151317021619 143.34678380121377 60.62093603515625 143.88341144328356 58.371496887485726C147.29079710910744 61.28147769513413 151.1383773304839 64.56819708948701 151.1383773304839 64.56819708948701L151.4911325588836 64.8787316142043C151.4911325588836 64.8787316142043 151.90734375613138 65.1560391946035 151.9343250342243 65.171278620193C151.9525623796019 65.18327029934538 152.32930096630636 65.44259036101597 152.32930096630636 65.44259036101597L152.25110522516678 65.38837797818118C154.45207800292968 67.06171687323862 156.79520214397832 67.89413926773419 159.22251786574273 67.86990608278039C160.4256830073666 67.8639102432042 161.67706469224905 67.66479840394459 162.9012152723896 67.27881623122681C164.31548393242542 66.83562375588613 165.5938468954008 66.16309041675585 166.73080797503744 65.27070962649829L166.85122441985945 65.171278620193L166.85722025943565 65.16503295396778L168.48858827745968 63.77499747888573L168.5760276046126 63.69055607152094C168.72092706103737 63.55789812089754 168.85358501166078 63.410250571333656 168.99823464143657 63.27159678113406C170.45472400515482 64.32986246633311 172.03462773348315 65.2224930832397 173.74444131929582 65.90077243529716C176.2954212323193 66.90207764452232 178.9760611761781 67.40547834227401 181.7259031018122 67.38449290375732C181.6806844783417 67.38449290375732 197.92741111664793 67.26682455207443 197.92741111664793 67.26682455207443C200.67750286893104 67.24583911355772 203.35514489300175 66.70596372505084 205.87289786170714 65.66868347836848C208.42387777473067 64.6194115525337 210.667321082825 63.13893883051066 212.5670029218839 61.26923618933273C214.40347861874375 59.46923518322809 215.8989409397073 57.346208319955764 217.00567299481395 54.97935064725135C218.22082981559024 52.364914765379744 218.8299071858724 49.545621031321346 218.8149175869319 46.59666726642765C218.8149175869319 46.641885889898155 218.6218015872485 20.80331488956817 218.6218015872485 20.80331488956817Z" fill="white"></path><path fill-rule="evenodd" clip-rule="evenodd" d="M7.646794003504922 39.82936299809147C7.43269256530483 40.04046651650346 7.254791008546037 40.284547152584544 7.12210807525774 40.562104559632736C6.9984938493284465 40.839412140031925 6.929141971563749 41.137954985596814 6.929141971563749 41.4604811894665V44.61754055298409C6.929141971563749 44.849879336561784 6.9984938493284465 45.03974758980807 7.14321842709894 45.19963664517338C7.281922182628335 45.36552154011487 7.493000718375428 45.45296086726776 7.73121042820482 45.45296086726776H7.936268141710812C8.180498673781305 45.45296086726776 8.385556387287297 45.36552154011487 8.527283045269693 45.19963664517338C8.665986800799088 45.03974758980807 8.738336598351884 44.849879336561784 8.738336598351884 44.61754055298409V42.01834409670198C8.738336598351884 41.6898220532561 8.81675718347558 41.448489510314104 8.964504663699076 41.29784404096212C9.12129586861667 41.146948744961115 9.338395226604863 41.07774676318583 9.612804817875553 41.07774676318583H10.83100952376971V45.597610497043554C10.83100952376971 45.95336364523134 10.939559202763807 46.27014383617384 11.153635658298997 46.541455576996825C11.38884744834029 46.82500882362122 11.753694286551976 46.966660533608916 12.236159511116758 46.966660533608916H14.069487392199093C14.401182234087383 46.966660533608916 14.71174174146957 46.900206644972705 15.00121587967546 46.77954037350171C15.28466919564025 46.64988034266642 15.531922630163741 46.46900584878442 15.749021988151933 46.24591065122003C15.960100523899026 46.019817533867545 16.125960436175617 45.76049747219695 16.240530937410817 45.45895670684396C16.364170146005012 45.157415941490974 16.42447829907561 44.849879336561784 16.42447829907561 44.527103306043095V41.5691557817851C16.42447829907561 41.249627497703514 16.364170146005012 40.93884314633722 16.240530937410817 40.63730238098423C16.125960436175617 40.34500520164455 15.960100523899026 40.07644155396065 15.743001165910835 39.86234011576056C15.531922630163741 39.64224283798427 15.28466919564025 39.464366263890376 15.007261684581461 39.33770415284318C14.71778754637557 39.19905036264358 14.401182234087383 39.126600634431185 14.075508214440193 39.126600634431185H9.359505578446061C9.030833639010774 39.126600634431185 8.717226246510684 39.19905036264358 8.418708383610694 39.319716634114585C8.123213423163705 39.44637874516178 7.857872539252015 39.61526155989137 7.646794003504922 39.82936299809147ZM13.8764963058402 41.07774676318583C14.084551939134291 41.07774676318583 14.259455576104987 41.146948744961115 14.401182234087383 41.29784404096212C14.545906811857876 41.4364978311617 14.612235787169574 41.6113764854675 14.612235787169574 41.8194820840914V44.28002475017391C14.612235787169574 44.48488260236069 14.545906811857876 44.65676333687839 14.401182234087383 44.80466071309129C14.259455576104987 44.94931034286708 14.084551939134291 45.02176007107948 13.8764963058402 45.02176007107948H12.561808548099048V41.07774676318583H13.8764963058402ZM6.938185696257848 26.619029451831835V26.884345353078622C6.938185696257848 27.11668413665632 7.016581298716645 27.321541988843105 7.17639540608724 27.481431044208403C7.336209513457834 27.6443180193618 7.541242244298926 27.7227635871504 7.779476936793219 27.7227635871504H15.583187058540238C15.821396768369631 27.7227635871504 16.026454481875625 27.6443180193618 16.18626858924622 27.481431044208403C16.34305979416381 27.321541988843105 16.42447829907561 27.11668413665632 16.42447829907561 26.884345353078622V26.619029451831835C16.42447829907561 26.398932174055542 16.34305979416381 26.19082657543165 16.192289411487316 26.030937520066352C16.032475304116726 25.871298291350065 15.821396768369631 25.77786312462097 15.583187058540238 25.77786312462097H7.779476936793219C7.541242244298926 25.77786312462097 7.330188691216734 25.871298291350065 7.16735168139314 26.030937520066352C7.016581298716645 26.196822415007848 6.938185696257848 26.398932174055542 6.938185696257848 26.619029451831835ZM3.159957352646083 30.82536074118418V31.084680802854773C3.159957352646083 31.32301542600867 3.2413758575578804 31.528123104844465 3.3981670624754745 31.68776233356075C3.5579811698460686 31.850649308714146 3.7630139006871612 31.92909487650275 4.001223610516552 31.92909487650275H7.016581298716645C6.965316870340147 32.13420255533854 6.929141971563749 32.345306073750535 6.929141971563749 32.55915768530162V35.46614057316192C6.929141971563749 35.800658456184 6.986427222181346 36.1114428075503 7.110066430775542 36.40373998688998C7.230682736916737 36.70528075224297 7.399540568981432 36.95860497433737 7.613617024516624 37.18469809168986C7.818674738022617 37.40204727632705 8.068926092334207 37.57992385042095 8.349356505845998 37.718577640620545C8.638830644051888 37.845239751667734 8.949415134098976 37.91743965323113 9.281109975987263 37.91743965323113H14.036310413210794C14.358961530404985 37.91743965323113 14.672543940240171 37.85723143082013 14.962018078446063 37.73356723956103C15.254515119104951 37.61914663431524 15.510812278322542 37.44726589979755 15.724913716522634 37.23016654180936C15.935992252269727 37.022060943185465 16.10784800412252 36.771734640879174 16.237508034957813 36.476189715102386C16.364170146005012 36.18963854868989 16.42447829907561 35.87310818439641 16.42447829907561 35.550581980526715V32.47796402437393C16.42447829907561 32.17017759279574 16.364170146005012 31.87188457387985 16.240530937410817 31.594327166831658C16.358124341099014 31.452675456843963 16.42447829907561 31.283792642114367 16.42447829907561 31.084680802854773V30.82536074118418C16.42447829907561 30.60226554361979 16.34305979416381 30.397157864783996 16.192289411487316 30.23751863606771C16.032475304116726 30.071633741126213 15.821396768369631 29.981196494185216 15.583187058540238 29.981196494185216H4.001223610516552C3.7569930784460612 29.981196494185216 3.5519353649400682 30.071633741126213 3.3981670624754745 30.23751863606771C3.2413758575578804 30.4034035310092 3.159957352646083 30.60226554361979 3.159957352646083 30.82536074118418ZM13.852388034210902 32.06175282712614C14.069487392199093 32.06175282712614 14.241368126716788 32.127956889113335 14.395136429181381 32.27285634553814C14.545906811857876 32.426499734678224 14.612235787169574 32.60462613542112 14.612235787169574 32.81847774697221V35.22480803021993C14.612235787169574 35.44190738820812 14.545906811857876 35.613788122725815 14.395136429181381 35.75843775250161C14.247388948957887 35.9003392891383 14.069487392199093 35.9665433511255 13.852388034210902 35.9665433511255H9.504255138881456C9.287130798228365 35.9665433511255 9.10922924146957 35.9003392891383 8.961481761246077 35.74644607334921C8.81071137856958 35.60179644357341 8.738336598351884 35.423919869479526 8.738336598351884 35.20981843127943V32.81847774697221C8.738336598351884 32.60462613542112 8.81071137856958 32.426499734678224 8.961481761246077 32.27285634553814C9.10922924146957 32.127956889113335 9.287130798228365 32.06175282712614 9.504255138881456 32.06175282712614H13.852388034210902ZM8.355402310751998 15.917555045572916C8.068926092334207 16.041194254167113 7.818674738022617 16.222118713378904 7.607596202275524 16.4512846985142C7.399540568981432 16.66838405650239 7.230682736916737 16.939770745320082 7.110066430775542 17.23226778597897C6.986427222181346 17.53078564887896 6.929141971563749 17.84134515626115 6.929141971563749 18.163996273455336V21.088891732049532C6.929141971563749 21.41151786657882 6.986427222181346 21.71910443683781 7.110066430775542 22.0206202195259C7.230682736916737 22.319163065090788 7.399540568981432 22.57848312676138 7.613617024516624 22.80160330699067C7.818674738022617 23.012681842737763 8.068926092334207 23.193606301949558 8.349356505845998 23.32626425257295C8.638830644051888 23.458947185861245 8.949415134098976 23.534344868531942 9.281109975987263 23.534344868531942H14.036310413210794C14.358961530404985 23.534344868531942 14.672543940240171 23.471013813008348 14.962018078446063 23.344376684626052C15.254515119104951 23.232804103178957 15.510812278322542 23.054902546420163 15.724913716522634 22.843824010673067C15.935992252269727 22.63576837737898 16.10784800412252 22.379446235496484 16.237508034957813 22.096017902196596C16.364170146005012 21.80352086153771 16.42447829907561 21.486915549249517 16.42447829907561 21.16126651226723V18.088623573449542C16.42447829907561 17.76294955380235 16.364170146005012 17.452365063755263 16.23148721271672 17.16591382800237C16.10784800412252 16.88850631694358 15.935992252269727 16.638229979967093 15.724913716522634 16.424153524431897C15.510812278322542 16.213074988684806 15.254515119104951 16.041194254167113 14.968063883352063 15.914557125784816C14.678589745146171 15.784897094949521 14.361959450193082 15.721566039425925 14.036310413210794 15.721566039425925H9.281109975987263C8.955460939004976 15.721566039425925 8.644876448957886 15.784897094949521 8.355402310751998 15.917555045572916ZM13.852388034210902 17.669489404408356C14.069487392199093 17.669489404408356 14.241368126716788 17.74183920196115 14.395136429181381 17.88658876239655C14.545906811857876 18.04035706486114 14.612235787169574 18.212237799378837 14.612235787169574 18.432360059820027V20.83861539507304C14.612235787169574 21.055714753061235 14.545906811857876 21.22157466533783 14.395136429181381 21.37232006534942C14.247388948957887 21.511048803543716 14.069487392199093 21.583398601096516 13.852388034210902 21.583398601096516H9.504255138881456C9.287130798228365 21.583398601096516 9.10922924146957 21.511048803543716 8.961481761246077 21.366299243108323C8.81071137856958 21.20950803819073 8.738336598351884 21.034604401220033 8.738336598351884 20.82957167037894V18.432360059820027C8.738336598351884 18.212237799378837 8.81071137856958 18.04035706486114 8.961481761246077 17.88658876239655C9.10922924146957 17.74183920196115 9.287130798228365 17.669489404408356 9.504255138881456 17.669489404408356H13.852388034210902ZM7.936268141710812 46.402801786797234C8.180498673781305 46.402801786797234 8.385556387287297 46.48424527437393 8.527283045269693 46.64988034266642C8.665986800799088 46.80677147824361 8.738336598351884 46.99988747792701 8.738336598351884 47.2379722744319V49.8251770515616C8.738336598351884 50.165940600808895 8.81675718347558 50.40702331710188 8.964504663699076 50.551922773526684C9.12129586861667 50.70256824287867 9.332374404363764 50.775017971091074 9.624846462357752 50.775017971091074H15.583187058540238C15.821396768369631 50.775017971091074 16.032475304116726 50.862457298243974 16.192289411487316 51.028342193185466C16.34305979416381 51.194227088126965 16.42447829907561 51.39608702052565 16.42447829907561 51.610188458725744V51.87250644018443C16.42447829907561 52.11383898312643 16.34305979416381 52.321944581750316 16.18626858924622 52.47558797089041C16.026454481875625 52.63547702625571 15.821396768369631 52.71991843362051 15.583187058540238 52.71991843362051H11.409932817516587C11.394868270581389 52.71991843362051 11.394868270581389 52.71991843362051 11.38280164343429 52.72891219298481H9.359505578446061C9.332374404363764 52.72891219298481 9.311264052522564 52.71991843362051 9.326328599457764 52.71991843362051H7.658860630652023C7.44173628999893 52.71991843362051 7.254791008546037 52.63547702625571 7.12210807525774 52.487829476691815C6.992448044422446 52.33693418069082 6.929141971563749 52.18004304511362 6.929141971563749 52.01440797682113V51.72785681040864C6.929141971563749 51.546982316526645 7.004514671569546 51.39608702052565 7.116087253016642 51.26642698969035C6.9984938493284465 50.99511524886737 6.929141971563749 50.70256824287867 6.929141971563749 50.392033718161386V47.2379722744319C6.929141971563749 46.99988747792701 6.9984938493284465 46.80677147824361 7.137197604857841 46.64988034266642C7.281922182628335 46.48424527437393 7.493000718375428 46.402801786797234 7.73121042820482 46.402801786797234H7.936268141710812Z" fill="#7D65D3"></path><path fill-rule="evenodd" clip-rule="evenodd" d="M68.39404239239977 21.511223682198025C68.38804655282357 19.64169591967439 67.99906646031768 17.874697013903752 67.24508963361069 16.234360219180314C66.51234807206941 14.627175420780269 65.47206990559896 13.19789217913902 64.1694737576698 11.994777002844963C62.87886928889305 10.797682648792005 61.371165462128104 9.85688545395664 59.69782656707066 9.190497850391964C58.00325240684753 8.521087344374285 56.21199533345819 8.195438307391997 54.37876738303546 8.204482032086098L38.186253127564036 8.328121240680293C36.353025177141305 8.337164965374393 34.573759782904354 8.69296807889198 32.88817938204552 9.392532661444957C31.202598981186682 10.083053519303832 29.719128339375537 11.060025612915597 28.476740413857378 12.278230318809753C27.252589833716822 13.484368397556809 26.25153445114066 14.910628736745059 25.506801210446987 16.496703183303904C24.737809802134617 18.155127427415543 24.354850531869825 19.94625958748038 24.36691715901693 21.830851896939212L24.55990824537582 47.615210514434395C24.568951970069918 49.46642598358572 24.951886257669806 51.26068097676316 25.690673624117082 52.958253056774396C26.417419346082156 54.613604433103234 27.397239463492618 56.08208547597389 28.60939836448077 57.31847756191584C29.824805011906037 58.55486964785781 31.23582592550478 59.54068560484446 32.80074005489263 60.25543964765714C34.417118473976174 60.98218536962222 36.15391333788171 61.3469322771743 37.948168331059144 61.3319426782338L55.26515233371682 61.20228264739851C56.64919196922267 61.18729304845802 57.879588215588434 60.743850746468325 58.8294291351179 59.89369065989316C59.85146995621076 58.97682685803278 60.37935366556525 57.71045557420983 60.373107999340036 56.220989092822485L60.36411423997574 55.09002385276202C60.35811840039954 53.61254905052707 59.80325341295216 52.34617776670412 58.771969005845996 51.44455339043325C57.79514680822364 50.606384983010486 56.58898374681168 50.1751841868222 55.18071092635203 50.1871758659746L40.972319917304326 50.29260271185609C39.2989810222469 50.304844217657504 38.098813800411136 49.949091069469716 37.39330334361176 49.24333078602134C36.67255346122289 48.50759130469196 36.3197982328232 47.47630689758579 36.3078065536708 46.09226726207995C36.3078065536708 46.09226726207995 36.28057544892891 42.416567775221175 36.26258793020031 40.00124373260916L60.49677219059914 39.82336715851527C62.55034724544716 39.80837755957477 64.38657311565801 39.154081565822096 65.94249348568154 37.88446253556204C67.63706764590468 36.50966648606949 68.49347339870505 34.365654184280466 68.46949004040025 31.516131425692066L68.39404239239977 21.511223682198025ZM36.187140282199806 29.46580411728114L36.129680152927904 22.868132143621576C36.1236843133517 21.84291852408631 36.4404645042942 21.04384798723334 37.13698120172928 20.368391676309663C37.848487498104845 19.67184999620969 38.63544144248092 19.3341343320803 39.61551138654038 19.331111429627303L53.1151441923516 19.231605475327303C54.095214136411066 19.219563830845107 54.88216808078714 19.542189965374394 55.60891380275221 20.229687920780272C56.31142633976348 20.902121329250946 56.637200290070275 21.692148141409817 56.64919196922267 22.71736176094508C56.64919196922267 22.71131595603908 56.67942099375267 26.757933068680433 56.694410592693174 29.31191090149204L36.187140282199806 29.46580411728114ZM211.69235982370594 46.64113640995112L211.50548949024775 20.856877723115545C211.48450405173105 18.993395765497915 211.10751563837755 17.199265685644978 210.365780317472 15.513685284786137C209.65102627465933 13.858258960462596 208.66795841081174 12.389777917591948 207.4468057504593 11.153485762309593C206.24064268904732 9.917193607027237 204.82962177544857 8.93117778872137 203.26445781941172 8.216548659233199C201.6483292269772 7.4838070976919235 199.91753020264787 7.124981081721336 198.11128353031802 7.140070611321437L180.79404970101135 7.263684837250731C179.4162557317307 7.275751464397831 178.18585948536494 7.7280626124273155 177.23302064604738 8.575374675203784C176.2077320785174 9.501082340439053 175.67410235623572 10.764505669803706 175.68609403538812 12.248076242274454C175.68609403538812 12.242030437368454 175.69533762140142 13.375818718562714 175.69533762140142 13.375818718562714C175.70732930055382 14.86538513060966 176.2621942880012 16.128808459974316 177.29347869510738 17.021364128886184C178.27329881251782 17.874697013903752 179.47646395414168 18.29685408539794 180.88173885481325 18.284787458250836L195.0898800372119 18.179260681709742C196.76346875891838 18.164171152109642 197.97262974011844 18.51697634583913 198.6601526781892 19.228607555539202C199.38689840015428 19.958301231962576 199.74265154834205 20.99258355885684 199.75764114728258 22.373600291909693C199.75764114728258 22.37964609681569 199.78487225202446 26.055420531669164 199.80285977075306 28.464498908055972L175.562429844129 28.642625308798873C173.5061066961419 28.663610747315566 171.67887458529538 29.31191090149204 170.11670854904662 30.581280105103094C168.42213438882348 31.962321820820847 167.5657286360231 34.10633412260988 167.58996182097692 36.95285896141017L167.66241154918933 46.957666774244615C167.6774011481298 48.82437149563445 168.0663812406357 50.59739122364619 168.81411240111748 52.23150733480932C169.54985188244683 53.844887834104775 170.5871321291292 55.27414609308112 171.88972827705834 56.47731123470498C173.18657841206033 57.67423071010363 174.68803657260005 58.6090820306926 176.36162529430652 59.28136554317387C178.06219529410586 59.94490512293985 179.84745652791898 60.27642508617384 181.6806844783417 60.267431326809536C181.6866803179179 60.267431326809536 197.87319873381315 60.150012801775645 197.87319873381315 60.150012801775645C199.70942460402398 60.125779616821845 201.4914380914 59.770026468634065 203.17402057247074 59.08250353056329C204.85660305354148 58.38898475291631 206.33407785577643 57.411912728644936 207.5794637010827 56.19375798808059C208.80686202766034 54.98459700688053 209.8109153300246 53.56733042705658 210.55864649050636 51.96918935335063C211.32461499636577 50.3108400572337 211.70460132950734 48.52582865006956 211.69235982370594 46.64113640995112ZM198.925468579436 48.10362161324558C198.21071453662333 48.80013831068065 197.42376059224728 49.131908100563635 196.44693839462488 49.140901859927936L182.95005368195277 49.23433702665704C181.9702335645423 49.24333078602134 181.17703395394102 48.92979834151594 180.45353597841307 48.23627956386897C179.75377153454087 47.572989810752 179.42524949109497 46.77979020015072 179.4162557317307 45.74850579304456C179.4162557317307 45.760747298845956 179.3890246269888 41.7140552382099 179.364791442035 39.154081565822096L199.88130533854167 39.0061841896092L199.92952188180027 45.603856163268766C199.93551772137647 46.623148891222534 199.61898735708297 47.422094514750995 198.925468579436 48.10362161324558ZM117.393542368989 40.206351411444956C117.3693091840352 36.494427060479985 116.16614404241136 33.62391886337489 113.81127804885934 31.688012160209762C111.55884098140072 29.848538543561823 108.95964452511862 28.92892664856236 106.06790106284781 28.94716399393996L89.4561776903405 29.06758043876195C87.61995182012967 29.085817784139557 86.98963918468179 28.35307622259828 86.7785356662698 28.114741599444386C86.13623135166952 27.367010438962613 85.81370514779984 26.66749582173944 85.81370514779984 26.004206068622466L85.78647404305794 22.1866550104568C85.77448236390553 20.84483607863335 86.26289346271672 20.21462337384507 86.6398818760702 19.84675363318038C87.22797380783568 19.270803276556705 88.22003543104755 18.972285413656714 89.5888356409639 18.960243769174514L108.28411326620024 18.82151503098022C109.59270525370559 18.812471306286117 110.76264345101134 18.378272590309734 111.74870923464701 17.555068799162566C112.84020186416416 16.629361133927297 113.40406061097585 15.347850355174442 113.40106269118775 13.846192333315496L113.38307517245914 12.709406132333138C113.37108349330676 11.195706465991991 112.78598948132937 9.929260234174336 111.69149893202412 9.030683743021367C110.69044354944795 8.204482032086098 109.48128256824789 7.794391587739013 108.09099726651684 7.806458214886112L87.74961185096497 7.954205695109606C85.50916646265874 7.972293144497806 83.49781211149312 8.427627194980289 81.77625667317709 9.302070431839057C80.12365338998733 10.143361672374429 78.70039097058718 11.20777309313909 77.55168803844714 12.450086070662545C76.39973735986996 13.701467755545002 75.5073565696124 15.103594840439051 74.90727295869452 16.6112736845391C74.30419142798854 18.131019155786245 74.00564858242366 19.548210787615492 74.01764026157606 20.84483607863335L74.05986096525845 27.246344167491618C74.07784848398705 29.052590839821452 74.44284521818814 30.747165000044593 75.15135359477561 32.30308537006813C75.8631097178002 33.85001198072738 76.78871745237585 35.17684131361034 77.90744118663491 36.2321090790213C79.02616492089398 37.29062459086936 80.34075274797553 38.131790918080235 81.81223171063428 38.731874528998105C83.29895009888253 39.34095189928029 84.81864560479987 39.64249266463328 86.32335151177672 39.63649682505708L103.24835750214041 39.51283263379798C104.02331976736409 39.50383887443368 104.37932274220088 39.63649682505708 104.49973918702287 39.69070920789187C104.77729659407106 39.82936299809147 104.97615860668165 39.98925205345677 105.13604766204695 40.18536597292826C105.31392423614083 40.41745492985695 105.43758842739993 40.649543886785644 105.50404231603615 40.89387434951573C105.59747748276523 41.24363165812732 105.64869194581192 41.560162022420805 105.64869194581192 41.86470070756189L105.68191889013004 45.99283625577465C105.68191889013004 46.402801786797234 105.63070442708333 46.894460632045515 105.51903191497664 47.4493256194929C105.43758842739993 47.91050561356218 105.28069729182275 48.32371889102187 105.05460417447024 48.71869482310395C104.84949649563445 49.06845213171554 104.59342418040096 49.360999137704226 104.26165439051798 49.61732127958672C104.07778197684789 49.749979230210116 103.75200802654109 49.825426878210614 103.3298009897171 49.825426878210614L79.27948914298838 50.0092992918807C77.88945366790632 50.0152951314569 76.65605950175245 50.47372703238709 75.706218582223 51.329882958538455C74.68717568091824 52.23150733480932 74.15029821219946 53.50112636506938 74.15929197156375 54.98459700688053L74.17153347736516 56.115312420291986C74.17752931694135 57.60802664811644 74.73839014396493 58.86540417257509 75.77267247085919 59.767028548845964C76.74949466848156 60.61718863542112 77.95565772989352 61.03040191288081 79.36393055035316 61.02440607330461L104.86173800143585 60.83428799340932C108.66709751912992 60.81030463510452 111.76369883358751 59.54068560484446 114.06460227095373 57.080392765410956C116.34402061650525 54.64683137742134 117.47798377635381 51.299903760657465 117.45075267161191 47.12654958897421L117.393542368989 40.206351411444956ZM164.21880101925925 51.079806482881175C164.15234713062304 51.01335259424497 149.30190163362406 38.27644054785602 144.10650664084795 33.81678503640928L162.55120813712898 17.280684190556773C164.21580309947112 15.851400948915524 164.56556040808275 14.301526383797981 164.55956456850654 13.252179509968517C164.55956456850654 12.145547385521459 164.11937001295394 11.075090159850795 163.30518496383596 10.155403316856628C163.35040358730646 10.203669825445028 162.4125543469294 9.078925268944866 162.4125543469294 9.078925268944866C161.01652303227115 7.438588474221425 159.4785901809762 7.106893632333136 158.42931825514145 7.112914454574236C157.147707545729 7.118960259480237 156.01399421252944 7.5682485050567205 155.16058637951716 8.403493940686092C155.20580500298766 8.361273237003692 142.9967766659532 19.3100010777861 136.8847676979657 24.785876449403805L136.7973283708128 12.742583111321435C136.7850868650114 11.280147873356787 136.22422603798782 10.004657916845034 135.19618937731877 9.042750370168468C134.1858904087293 8.107998980239103 132.94350248321115 7.622510853221318 131.6046814711758 7.631554577915418L130.15743569347086 7.6466441075155185C128.7221815949183 7.655687832209617 127.45880823088346 8.1713050530978 126.49372788576449 9.145279226921463C125.52889736729452 10.11922841808023 125.03124268247002 11.391695472138984 125.03723852204622 12.827024518686233C125.03723852204622 12.833045340927333 125.35401871298873 55.533466154751714 125.35401871298873 55.533466154751714C125.36301247235302 56.962724413728054 125.88465051548229 58.22609777776292 126.86472045954177 59.190928296232876C127.84154265716413 60.150012801775645 129.1171575270004 60.656411419315425 130.54341786618863 60.64441974016303L131.99665948346978 60.63842390058683C133.34472408151845 60.62018655520922 134.57487050123518 60.11678585745754 135.56393420465895 59.17593869729238C136.58922277218892 58.189872913656714 137.12884833404678 56.89627052509186 137.1108608153182 55.44003098802261C137.1108608153182 55.446026827598814 137.0626442720596 48.118611212186075 137.02342148816533 43.143313497186256L155.71545136696454 59.11872839466949L155.80888653369362 59.19717396245808L155.90856736664793 59.263378024445274C156.13466048400042 59.41427332044628 156.3457640024124 59.56491878979827 156.55686752082443 59.71881200558736C157.48247525540006 60.42132454259864 158.31464782324664 60.75909017205783 159.14407229795412 60.74984658604452C159.6717061806596 60.743850746468325 160.2235732483189 60.659409339103526 160.76919464975296 60.49377427081104C161.35428866173035 60.30065827112764 161.8759267048596 60.02934653030465 162.34635028494222 59.66734771589166C162.4185501865056 59.601143653904465 163.75437327875284 58.4551888149035 163.75437327875284 58.4551888149035C164.98476952511862 57.33046924106824 165.599842734977 55.976658630092395 165.5848531360365 54.49918382785745C165.5848531360365 53.70598421725617 165.4159703213069 52.9794883219401 165.0961922105763 52.33118816776363C164.7976493650114 51.767329420951945 164.52633762418841 51.37210366222085 164.21880101925925 51.079806482881175Z" fill="#7D65D3"></path></svg> 