<?xml version="1.0" encoding="UTF-8"?> <svg xmlns="http://www.w3.org/2000/svg" width="141" height="84" viewBox="0 0 141 84" fill="none"><path d="M0 17.9697C0 8.04529 8.0453 0 17.9697 0H122.499C132.423 0 140.468 8.0453 140.468 17.9697V35.0534C140.468 44.9777 132.423 53.023 122.499 53.023H17.9697C8.04532 53.023 0 44.9777 0 35.0533V17.9697Z" fill="white"></path><path d="M20.1518 19.7442H26.2335V37.2518H30.9113V19.7442H36.993V15.5484H20.1518V19.7442Z" fill="#7D65D3"></path><path d="M14.6603 43.7231H94.5622V8.72644H14.6603V43.7231ZM68.534 10.2989H92.8081V42.1533H68.534V10.2989ZM42.4848 10.2989H66.7588V42.1533H42.4848V10.2989ZM16.4355 10.2989H40.7095V42.1533H16.4355V10.2989Z" fill="#7D65D3"></path><path d="M79.5148 15.5296H73.765V37.2329H78.1662V30.5955L79.1092 30.6324C85.0249 30.6324 87.9275 26.7869 87.9275 22.9782C87.9459 19.2618 85.1355 15.5269 79.5148 15.5269V15.5296ZM78.1662 26.584V19.7438H79.7571C82.2725 19.7807 83.5289 20.6314 83.6948 23.1257C83.5289 25.7149 82.067 26.5472 79.5359 26.584H78.1662Z" fill="#7D65D3"></path><path d="M54.7983 26.7159L54.6139 27.4007L54.4479 26.7159L49.4567 15.29H44.5761L54.6139 37.8994L64.6701 15.29H59.7895L54.7983 26.7159Z" fill="#7D65D3"></path><path d="M121.889 24.6057C125.458 23.5337 127.27 20.6496 127.27 17.1176C127.27 11.7181 123.111 8.09645 115.752 8.09645C107.674 8.09645 103.107 11.9604 102.959 18.4319H111.427C111.427 16.0298 113.073 14.6601 115.291 14.697C117.49 14.7339 119.081 16.1404 119.155 18.2844C119.321 23.0544 116.713 23.9236 114.885 24.8296C116.863 26.0491 119.914 26.4758 119.932 32.6865C119.932 35.2204 118.323 37.0878 115.383 37.0878C112.591 37.0878 111.114 35.4785 111.114 32.4284V31.8358H102.259V32.3152C102.259 39.6558 107.397 44.3679 115.533 44.3679C123.28 44.3679 128.603 39.7085 128.603 32.9052C128.64 28.2827 126.293 25.3432 121.892 24.6031L121.889 24.6057Z" fill="#7D65D3"></path><path d="M9.96993 84L2.69866 66.0378H6.89824L10.2819 75.4208L13.9175 65.4738H14.2415L17.9011 75.4208L21.2488 66.0378H25.1244L17.9011 84H17.6372L13.9175 74.0529L10.2819 84H9.96993Z" fill="white"></path><path d="M29.1324 77.905H33.7039L31.4482 72.4575L29.1324 77.905ZM22.629 83.4364L31.4962 65.4982H31.7601L40.4353 83.4364H36.0917L34.9878 80.9047H27.9325L26.8046 83.4364H22.629Z" fill="white"></path><path d="M46.5065 69.2055H45.8225V74.029H46.6984C47.7463 74.029 48.5463 73.8171 49.0982 73.3931C49.6502 72.9691 49.9261 72.3612 49.9261 71.5693C49.9261 70.7374 49.6582 70.1374 49.1222 69.7695C48.5863 69.3935 47.7143 69.2055 46.5065 69.2055ZM41.7909 83.4361V66.0378H46.2665C47.6984 66.0378 48.8062 66.1338 49.5902 66.3258C50.3821 66.5098 51.082 66.8218 51.6899 67.2617C52.3379 67.7257 52.8378 68.3016 53.1898 68.9895C53.5498 69.6695 53.7297 70.3894 53.7297 71.1493C53.7297 72.2452 53.4498 73.2051 52.8898 74.029C52.3379 74.853 51.538 75.4969 50.4901 75.9609L55.7935 83.4361H51.054L46.4105 76.6088H45.8225V83.4361H41.7909Z" fill="white"></path><path d="M56.6454 78.5167C57.7173 79.1726 58.6252 79.6325 59.3691 79.8965C60.1211 80.1605 60.853 80.2925 61.5649 80.2925C62.2848 80.2925 62.8608 80.1365 63.2927 79.8245C63.7327 79.5046 63.9527 79.0966 63.9527 78.6007C63.9527 77.8887 63.1768 77.0888 61.6249 76.2009C61.3769 76.0569 61.185 75.9449 61.049 75.8649L59.8731 75.205C58.7292 74.5571 57.8813 73.8251 57.3293 73.0092C56.7774 72.1933 56.5014 71.2694 56.5014 70.2375C56.5014 68.8376 57.0294 67.6897 58.0853 66.7938C59.1412 65.8979 60.505 65.45 62.1769 65.45C62.7928 65.45 63.4607 65.522 64.1807 65.6659C64.9006 65.8099 65.7005 66.0339 66.5804 66.3379V70.4175C65.7405 69.8895 64.9446 69.4816 64.1926 69.1936C63.4407 68.9056 62.8008 68.7616 62.2728 68.7616C61.6889 68.7616 61.2289 68.8896 60.893 69.1456C60.557 69.3936 60.389 69.7335 60.389 70.1655C60.389 70.4695 60.489 70.7534 60.689 71.0174C60.889 71.2814 61.189 71.5214 61.5889 71.7373L63.6287 72.8652C65.3325 73.8091 66.4764 74.681 67.0604 75.481C67.6523 76.2809 67.9483 77.2288 67.9483 78.3247C67.9483 80.0205 67.3683 81.3924 66.2085 82.4403C65.0566 83.4802 63.5247 84.0001 61.6129 84.0001C60.965 84.0001 60.261 83.9321 59.5011 83.7961C58.7412 83.6601 57.9053 83.4482 56.9934 83.1602L56.6454 78.5167Z" fill="white"></path><path d="M69.4005 83.4361L78.0516 69.6735H70.2884L70.9483 66.0378H84.7589L76.1318 79.7525H84.7589L84.099 83.4361H69.4005Z" fill="white"></path><path d="M91.214 77.905H95.7856L93.5298 72.4575L91.214 77.905ZM84.7107 83.4364L93.5778 65.4982H93.8418L102.517 83.4364H98.1733L97.0694 80.9047H90.0141L88.8863 83.4364H84.7107Z" fill="white"></path><path d="M107.328 83.9998L100.057 66.0376H104.256L107.64 75.4207L111.276 65.4737H111.6L115.259 75.4207L118.607 66.0376H122.483L115.259 83.9998H114.995L111.276 74.0528L107.64 83.9998H107.328Z" fill="white"></path><path d="M126.467 77.905H131.038L128.782 72.4575L126.467 77.905ZM119.963 83.4364L128.83 65.4982H129.094L137.769 83.4364H133.426L132.322 80.9047H125.267L124.139 83.4364H119.963Z" fill="white"></path></svg> 