<?xml version="1.0" encoding="UTF-8"?> <svg xmlns="http://www.w3.org/2000/svg" width="94" height="94" viewBox="0 0 94 94" fill="none"><path fill-rule="evenodd" clip-rule="evenodd" d="M31.3439 24.875V35.5713C31.3439 36.3875 30.6375 37.077 29.8011 37.077C29.1668 37.077 28.6218 36.6924 28.3921 36.147C27.8816 36.6538 27.0356 37.0954 25.9201 37.0954C23.6338 37.0954 21.2042 35.2838 21.2042 31.927C21.2042 28.7034 23.6018 26.777 25.9201 26.777C26.847 26.777 27.7059 27.1103 28.2944 27.659V24.875C28.2944 24.0588 28.9847 23.3693 29.8011 23.3693C30.6375 23.3693 31.3439 24.0588 31.3439 24.875ZM28.3853 31.927C28.3853 29.9822 27.1094 29.4632 26.3554 29.4632C25.3019 29.4632 24.2352 30.3094 24.2352 31.927C24.2352 33.6204 25.3342 34.3912 26.3554 34.3912C27.1094 34.3912 28.3853 33.8724 28.3853 31.927ZM41.6847 35.6071C41.6847 36.3581 41.0737 36.9684 40.3231 36.9684H35.4449C34.6004 36.9684 33.8837 36.5348 33.5752 35.8362C33.269 35.1436 33.4366 34.3454 34.0235 33.7007L37.9778 29.5719H34.9733C34.2101 29.5719 33.6117 28.9817 33.6117 28.2289C33.6117 27.4884 34.2227 26.8857 34.9733 26.8857H39.507C40.3581 26.8857 41.1097 27.3472 41.4227 28.0613C41.7202 28.7402 41.5619 29.5096 40.9989 30.1189L40.995 30.1238L37.0125 34.2645H40.3231C41.0737 34.2645 41.6847 34.8667 41.6847 35.6071ZM57.2795 33.1433L52.313 33.11C52.6114 33.9766 53.3985 34.482 54.4869 34.482C55.0464 34.482 55.2985 34.3728 55.8002 34.1552L55.8615 34.1284C55.911 34.1064 55.9614 34.0833 56.0103 34.0604C56.2882 33.9321 56.5508 33.8115 56.8802 33.8115C57.5429 33.8115 58.0241 34.2925 58.0241 34.955C58.0241 35.4005 57.7965 35.8088 57.3273 36.2028L57.305 36.2199C56.5234 36.7692 55.5172 37.059 54.3963 37.059C51.8447 37.059 49.0992 35.4591 49.0992 31.9454C49.0992 28.3805 52.0799 26.7774 54.1965 26.7774C55.338 26.7774 56.5618 27.2429 57.4701 28.0233C58.5178 28.9229 59.0941 30.1737 59.0941 31.5463C59.0941 33.1433 57.7282 33.1433 57.2795 33.1433ZM56.0272 30.8198C55.6829 29.6015 54.5584 29.4991 54.1965 29.4991C53.4265 29.4991 52.567 29.8543 52.2911 30.8198H56.0272ZM28.0663 40.7303V51.4265C28.0663 52.2428 27.3595 52.9323 26.5235 52.9323C25.8892 52.9323 25.3438 52.5477 25.1146 52.0017C24.6035 52.5087 23.7575 52.9503 22.6426 52.9503C20.3563 52.9503 17.9261 51.1391 17.9261 47.7823C17.9261 44.5587 20.3242 42.6322 22.6426 42.6322C23.5693 42.6322 24.4279 42.9656 25.0167 43.5143V40.7303C25.0167 39.9135 25.707 39.224 26.5235 39.224C27.3595 39.224 28.0663 39.9135 28.0663 40.7303ZM25.1076 47.7823C25.1076 45.8369 23.8314 45.3179 23.0778 45.3179C22.0242 45.3179 20.9577 46.1647 20.9577 47.7823C20.9577 49.4753 22.0567 50.2465 23.0778 50.2465C23.8314 50.2465 25.1076 49.7277 25.1076 47.7823ZM43.8532 23.1646C43.8532 22.3484 44.5599 21.6589 45.3965 21.6589C46.2224 21.6589 46.9207 22.3484 46.9207 23.1646C46.9207 23.9809 46.2224 24.671 45.3965 24.671C44.5599 24.671 43.8532 23.9809 43.8532 23.1646ZM46.9027 28.3556V35.5349C46.9027 36.3856 46.2269 37.077 45.3965 37.077C44.5554 37.077 43.8718 36.3856 43.8718 35.5349V28.3556C43.8718 27.5153 44.5554 26.8318 45.3965 26.8318C46.213 26.8318 46.9027 27.5298 46.9027 28.3556ZM54.6832 47.7823C54.6832 51.1391 52.2536 52.9503 49.9671 52.9503C48.8516 52.9503 48.0062 52.5087 47.4951 52.0017C47.2656 52.5477 46.7206 52.9323 46.0863 52.9323C45.2497 52.9323 44.5435 52.2428 44.5435 51.4265V40.7303C44.5435 39.9135 45.2497 39.224 46.0863 39.224C46.9027 39.224 47.593 39.9135 47.593 40.7303V43.5143C48.1815 42.9656 49.0404 42.6322 49.9671 42.6322C52.2856 42.6322 54.6832 44.5587 54.6832 47.7823ZM51.6521 47.7823C51.6521 46.1647 50.5855 45.3179 49.532 45.3179C49.0418 45.3179 48.5557 45.5135 48.1989 45.8549C47.7432 46.2904 47.5021 46.957 47.5021 47.7823C47.5021 49.7277 48.7778 50.2465 49.532 50.2465C50.5532 50.2465 51.6521 49.4753 51.6521 47.7823ZM64.0268 44.0661C64.0268 44.7676 63.5401 45.5177 62.1756 45.5177C60.9144 45.5177 60.1553 46.4974 60.0735 47.0608V51.4081C60.0735 52.2244 59.3838 52.9143 58.5667 52.9143C57.7401 52.9143 57.042 52.2244 57.042 51.4081V44.2109C57.042 43.3707 57.7262 42.6867 58.5667 42.6867C59.2758 42.6867 59.8898 43.2129 60.039 43.893C60.6011 43.2419 61.5023 42.6503 62.5745 42.6503C63.4293 42.6503 64.0268 43.2325 64.0268 44.0661ZM75.9098 44.0836C75.9098 44.376 75.8105 44.6131 75.7337 44.7676L71.0396 55.3297C70.7537 55.9828 70.2276 56.3586 69.5976 56.3586C68.8241 56.3586 68.2182 55.7449 68.2182 54.9615C68.2182 54.695 68.2985 54.4806 68.358 54.3239L68.3725 54.2859C68.9933 52.871 68.9827 51.2593 68.3445 49.8524L66.0266 44.7427L66.0182 44.7212C65.9593 44.5645 65.8784 44.3505 65.8784 44.0836C65.8784 43.3134 66.5139 42.6867 67.2944 42.6867C67.9246 42.6867 68.4508 43.0623 68.7374 43.717L70.8704 48.65L73.0516 43.716C73.3379 43.0623 73.857 42.6867 74.4759 42.6867C75.28 42.6867 75.9098 43.3002 75.9098 44.0836ZM70.8404 31.456V35.5533C70.8404 36.3836 70.1568 37.059 69.3157 37.059C68.4853 37.059 67.8095 36.3836 67.8095 35.5533V31.456C67.8095 30.1827 67.2429 29.4812 66.2148 29.4812C64.6765 29.4812 64.3297 31.0254 64.2939 31.212V35.5533C64.2939 36.3836 63.6181 37.059 62.787 37.059C61.9466 37.059 61.2628 36.3836 61.2628 35.5533V28.356C61.2628 27.5153 61.9466 26.8318 62.787 26.8318C63.4967 26.8318 64.1106 27.3586 64.2594 28.0383C64.8389 27.3856 65.8016 26.7954 67.0673 26.7954C69.43 26.7954 70.8404 28.5377 70.8404 31.456ZM94.0001 88.1211C94.0001 91.3682 91.3669 94 88.1192 94C84.8711 94 82.2383 91.3682 82.2383 88.1211C82.2383 84.8739 84.8711 82.2419 88.1192 82.2419C91.3669 82.2419 94.0001 84.8739 94.0001 88.1211ZM42.064 46.9235C42.064 50.1452 39.4516 52.7566 36.229 52.7566C33.0069 52.7566 30.3941 50.1452 30.3941 46.9235C30.3941 43.7025 33.0069 41.091 36.229 41.091C39.4516 41.091 42.064 43.7025 42.064 46.9235ZM37.2661 45.7207H36.4936L36.0185 47.1695L35.5373 45.7207H34.4299L35.4564 48.4644H36.256L37.2661 45.7207ZM34.2242 45.7211H33.6726L33.6732 44.8082H32.6341V45.7211H32.2232V46.4181H32.6341V47.6101C32.6286 47.9769 32.7259 48.1974 32.9584 48.359C33.1101 48.4608 33.2778 48.4988 33.5974 48.4988C33.8782 48.4933 33.9646 48.4828 34.2242 48.4393V47.675C34.0999 47.7075 34.008 47.7239 33.9213 47.7239C33.7376 47.7239 33.6726 47.6481 33.6726 47.4364V46.4181H34.2242V45.7211ZM40.1419 46.7085C40.1419 46.2236 40.099 46.0674 39.9208 45.9007C39.7697 45.7556 39.5211 45.6692 39.2675 45.6692C39.0513 45.6692 38.8308 45.7286 38.702 45.82C38.6046 45.8903 38.5459 45.96 38.4754 46.1108H38.465V45.7231H37.4663V48.4638H38.5404V46.8168C38.5404 46.5364 38.6371 46.4013 38.8363 46.4013C39.003 46.4013 39.0623 46.4986 39.0623 46.7355V48.4638H40.1419V46.7085Z" fill="white"></path><path fill-rule="evenodd" clip-rule="evenodd" d="M93.9347 46.9521C93.9347 72.8836 72.9067 93.9043 46.9675 93.9043C21.028 93.9043 0 72.8836 0 46.9521C0 21.0214 21.028 0 46.9675 0C72.9067 0 93.9347 21.0214 93.9347 46.9521ZM82.3077 47.1403C82.4095 27.5834 66.1714 11.4307 46.6088 11.6253C28.191 11.8079 13.1462 26.076 11.7358 44.1701C11.6809 44.8725 11.6485 45.5807 11.6355 46.2941C11.8112 54.5571 18.5625 61.2029 26.8705 61.2029C28.793 61.2029 30.6301 60.8435 32.3241 60.1945C32.329 60.192 32.3341 60.19 32.339 60.1875C32.8517 59.9411 33.3712 59.7071 33.8978 59.4854C37.9175 57.7956 42.3329 56.8601 46.9671 56.8601C56.6826 56.8601 65.4372 60.9673 71.5916 67.5379C72.8029 68.8306 74.8997 68.669 75.9172 67.2191C79.9107 61.5291 82.2683 54.6094 82.3077 47.1403ZM65.5036 25.6066C64.6646 26.122 63.827 25.5966 63.9265 24.6171C64.0258 23.6373 64.0826 23.051 64.7336 22.3566C65.3824 21.6635 65.9499 21.7512 66.5891 22.108C66.5891 22.108 66.5936 22.1104 66.5971 22.1129C66.6012 22.1149 66.6051 22.118 66.6051 22.118C67.205 22.5381 67.531 23.0106 67.1891 23.8966C66.8462 24.7849 66.3431 25.0906 65.5036 25.6066Z" fill="white"></path></svg> 